<svg xmlns="http://www.w3.org/2000/svg" viewBox="0 0 64 64" width="64" height="64">
  <defs>
    <linearGradient id="bgGrad" x1="0%" y1="0%" x2="100%" y2="100%">
      <stop offset="0%" stop-color="#7c3aed"/>
      <stop offset="50%" stop-color="#6366f1"/>
      <stop offset="100%" stop-color="#3b82f6"/>
    </linearGradient>
    <filter id="glow" x="-20%" y="-20%" width="140%" height="140%">
      <feGaussianBlur stdDeviation="2" result="blur"/>
      <feComposite in="SourceGraphic" in2="blur" operator="over"/>
    </filter>
  </defs>
  <rect width="64" height="64" rx="16" fill="url(#bgGrad)"/>
  <path d="M42 12l2.5 5.5L50 20l-5.5 2.5L42 28l-2.5-5.5L34 20l5.5-2.5z" fill="#fef08a" filter="url(#glow)"/>
  <path d="M18 16l1.5 3.5L23 21l-3.5 1.5L18 26l-1.5-3.5L13 21l3.5-1.5z" fill="#fef08a"/>
  <path d="M22 46l18-18 4 4-18 18z" fill="#ffffff"/>
  <path d="M40 28l4 4-4 4-4-4z" fill="#93c5fd"/>
  <path d="M18 50l4-4-2-2-4 4a1.4 1.4 0 0 0 2 2z" fill="#cbd5e1"/>
</svg>
